<svg width="30" height="31" viewBox="0 0 30 31" fill="none" xmlns="http://www.w3.org/2000/svg">
<path d="M23.75 14.7159H8.925L13.4625 9.26592C13.6747 9.01065 13.7768 8.68155 13.7463 8.35102C13.7158 8.02048 13.5553 7.71559 13.3 7.50342C13.0447 7.29125 12.7156 7.18917 12.3851 7.21964C12.0546 7.25012 11.7497 7.41065 11.5375 7.66592L5.2875 15.1659C5.24545 15.2256 5.20785 15.2882 5.175 15.3534C5.175 15.4159 5.175 15.4534 5.0875 15.5159C5.03084 15.6592 5.00118 15.8118 5 15.9659C5.00118 16.12 5.03084 16.2726 5.0875 16.4159C5.0875 16.4784 5.0875 16.5159 5.175 16.5784C5.20785 16.6436 5.24545 16.7063 5.2875 16.7659L11.5375 24.2659C11.655 24.407 11.8022 24.5205 11.9686 24.5983C12.1349 24.6761 12.3164 24.7162 12.5 24.7159C12.7921 24.7165 13.0751 24.6148 13.3 24.4284C13.4266 24.3235 13.5312 24.1946 13.6079 24.0492C13.6846 23.9037 13.7318 23.7446 13.7469 23.5809C13.762 23.4172 13.7447 23.2521 13.6959 23.0951C13.6471 22.9381 13.5678 22.7922 13.4625 22.6659L8.925 17.2159H23.75C24.0815 17.2159 24.3995 17.0842 24.6339 16.8498C24.8683 16.6154 25 16.2974 25 15.9659C25 15.6344 24.8683 15.3165 24.6339 15.082C24.3995 14.8476 24.0815 14.7159 23.75 14.7159Z" fill="#DDE0E4"/>
</svg>
