<svg width="246" height="23" viewBox="0 0 246 23" fill="none" xmlns="http://www.w3.org/2000/svg">
<path d="M7.944 18.1248C6.344 18.1248 5.016 17.9008 3.96 17.4528C2.904 16.9888 2.104 16.3888 1.56 15.6528C1.016 14.9168 0.728 14.1328 0.696 13.3008C0.696 13.1728 0.744 13.0608 0.84 12.9648C0.952 12.8528 1.08 12.7968 1.224 12.7968H4.248C4.472 12.7968 4.64 12.8368 4.752 12.9168C4.88 12.9968 4.992 13.1008 5.088 13.2288C5.216 13.4688 5.392 13.7008 5.616 13.9248C5.856 14.1488 6.16 14.3328 6.528 14.4768C6.912 14.6048 7.384 14.6688 7.944 14.6688C8.872 14.6688 9.568 14.5248 10.032 14.2368C10.512 13.9488 10.752 13.5568 10.752 13.0608C10.752 12.7088 10.624 12.4208 10.368 12.1968C10.112 11.9568 9.696 11.7488 9.12 11.5728C8.56 11.3808 7.808 11.1888 6.864 10.9968C5.648 10.7408 4.608 10.4128 3.744 10.0128C2.896 9.59677 2.248 9.06077 1.8 8.40477C1.352 7.73277 1.128 6.90077 1.128 5.90877C1.128 4.93277 1.4 4.06077 1.944 3.29276C2.504 2.52477 3.28 1.92477 4.272 1.49276C5.264 1.06076 6.44 0.844765 7.8 0.844765C8.904 0.844765 9.872 0.988765 10.704 1.27676C11.552 1.56476 12.264 1.94876 12.84 2.42876C13.416 2.90876 13.848 3.42076 14.136 3.96476C14.44 4.49276 14.6 5.01276 14.616 5.52476C14.616 5.65276 14.568 5.77277 14.472 5.88477C14.376 5.98077 14.256 6.02877 14.112 6.02877H10.944C10.768 6.02877 10.616 5.99677 10.488 5.93277C10.36 5.86876 10.248 5.76476 10.152 5.62076C10.056 5.26876 9.8 4.96476 9.384 4.70877C8.984 4.43676 8.456 4.30076 7.8 4.30076C7.096 4.30076 6.544 4.42876 6.144 4.68477C5.76 4.92477 5.568 5.30077 5.568 5.81277C5.568 6.13277 5.672 6.41277 5.88 6.65277C6.104 6.89277 6.464 7.10077 6.96 7.27676C7.472 7.45276 8.168 7.63677 9.048 7.82876C10.504 8.10077 11.68 8.44477 12.576 8.86077C13.472 9.26077 14.128 9.78877 14.544 10.4448C14.96 11.0848 15.168 11.8928 15.168 12.8688C15.168 13.9568 14.856 14.9008 14.232 15.7008C13.624 16.4848 12.776 17.0848 11.688 17.5008C10.6 17.9168 9.352 18.1248 7.944 18.1248ZM23.0426 18.1248C21.8586 18.1248 20.8106 17.9088 19.8986 17.4768C18.9866 17.0448 18.2586 16.4208 17.7146 15.6048C17.1866 14.7728 16.8986 13.7808 16.8506 12.6288C16.8346 12.3728 16.8266 12.0528 16.8266 11.6688C16.8266 11.2688 16.8346 10.9408 16.8506 10.6848C16.8986 9.51677 17.1866 8.52477 17.7146 7.70877C18.2426 6.87677 18.9626 6.24477 19.8746 5.81277C20.8026 5.38076 21.8586 5.16476 23.0426 5.16476C24.1466 5.16476 25.0906 5.32476 25.8746 5.64476C26.6586 5.94876 27.2986 6.33277 27.7946 6.79677C28.2906 7.26077 28.6586 7.74077 28.8986 8.23677C29.1546 8.71677 29.2906 9.14077 29.3066 9.50877C29.3226 9.66877 29.2666 9.81277 29.1386 9.94076C29.0106 10.0528 28.8666 10.1088 28.7066 10.1088H25.6586C25.4826 10.1088 25.3466 10.0688 25.2506 9.98877C25.1546 9.90877 25.0666 9.78877 24.9866 9.62877C24.7946 9.13277 24.5466 8.78077 24.2426 8.57277C23.9546 8.36477 23.5786 8.26077 23.1146 8.26077C22.4746 8.26077 21.9786 8.46877 21.6266 8.88476C21.2906 9.30077 21.1066 9.94077 21.0746 10.8048C21.0586 11.4448 21.0586 12.0128 21.0746 12.5088C21.1066 13.3888 21.2906 14.0288 21.6266 14.4288C21.9786 14.8288 22.4746 15.0288 23.1146 15.0288C23.6106 15.0288 24.0026 14.9248 24.2906 14.7168C24.5786 14.5088 24.8106 14.1568 24.9866 13.6608C25.0666 13.5008 25.1546 13.3808 25.2506 13.3008C25.3466 13.2208 25.4826 13.1808 25.6586 13.1808H28.7066C28.8666 13.1808 29.0106 13.2448 29.1386 13.3728C29.2666 13.4848 29.3226 13.6208 29.3066 13.7808C29.2906 14.0528 29.2106 14.3728 29.0666 14.7408C28.9226 15.0928 28.6986 15.4688 28.3946 15.8688C28.0906 16.2688 27.6906 16.6448 27.1946 16.9968C26.7146 17.3328 26.1306 17.6048 25.4426 17.8128C24.7546 18.0208 23.9546 18.1248 23.0426 18.1248ZM32.0629 17.8848C31.8869 17.8848 31.7429 17.8288 31.6309 17.7168C31.5189 17.6048 31.4629 17.4608 31.4629 17.2848V6.00476C31.4629 5.82876 31.5189 5.68476 31.6309 5.57277C31.7429 5.46076 31.8869 5.40476 32.0629 5.40476H34.8949C35.0549 5.40476 35.1909 5.46076 35.3029 5.57277C35.4309 5.68476 35.4949 5.82876 35.4949 6.00476V17.2848C35.4949 17.4608 35.4309 17.6048 35.3029 17.7168C35.1909 17.8288 35.0549 17.8848 34.8949 17.8848H32.0629ZM32.0389 3.60476C31.8629 3.60476 31.7189 3.54876 31.6069 3.43676C31.4949 3.32476 31.4389 3.18077 31.4389 3.00477V0.868764C31.4389 0.692765 31.4949 0.548765 31.6069 0.436764C31.7189 0.308765 31.8629 0.244765 32.0389 0.244765H34.8949C35.0709 0.244765 35.2149 0.308765 35.3269 0.436764C35.4549 0.548765 35.5189 0.692765 35.5189 0.868764V3.00477C35.5189 3.18077 35.4549 3.32476 35.3269 3.43676C35.2149 3.54876 35.0709 3.60476 34.8949 3.60476H32.0389ZM44.1838 18.1248C42.2958 18.1248 40.7918 17.6128 39.6718 16.5888C38.5518 15.5648 37.9678 14.0448 37.9198 12.0288C37.9198 11.9168 37.9198 11.7728 37.9198 11.5968C37.9198 11.4208 37.9198 11.2848 37.9198 11.1888C37.9678 9.92477 38.2478 8.84477 38.7598 7.94876C39.2878 7.03677 40.0078 6.34877 40.9198 5.88477C41.8478 5.40477 42.9278 5.16476 44.1598 5.16476C45.5678 5.16476 46.7278 5.44476 47.6398 6.00476C48.5678 6.56477 49.2638 7.32477 49.7278 8.28477C50.1918 9.24477 50.4238 10.3408 50.4238 11.5728V12.1488C50.4238 12.3248 50.3598 12.4688 50.2318 12.5808C50.1198 12.6928 49.9838 12.7488 49.8238 12.7488H42.1438C42.1438 12.7648 42.1438 12.7888 42.1438 12.8208C42.1438 12.8528 42.1438 12.8848 42.1438 12.9168C42.1598 13.3808 42.2398 13.8048 42.3838 14.1888C42.5278 14.5728 42.7518 14.8768 43.0558 15.1008C43.3598 15.3248 43.7278 15.4368 44.1598 15.4368C44.4798 15.4368 44.7438 15.3888 44.9518 15.2928C45.1758 15.1808 45.3598 15.0608 45.5038 14.9328C45.6478 14.7888 45.7598 14.6688 45.8398 14.5728C45.9838 14.4128 46.0958 14.3168 46.1758 14.2848C46.2718 14.2368 46.4158 14.2128 46.6078 14.2128H49.5838C49.7438 14.2128 49.8718 14.2608 49.9678 14.3568C50.0798 14.4368 50.1278 14.5568 50.1118 14.7168C50.0958 14.9888 49.9598 15.3168 49.7038 15.7008C49.4478 16.0848 49.0718 16.4688 48.5758 16.8528C48.0958 17.2208 47.4878 17.5248 46.7518 17.7648C46.0158 18.0048 45.1598 18.1248 44.1838 18.1248ZM42.1438 10.3728H46.1998V10.3248C46.1998 9.81277 46.1198 9.36477 45.9598 8.98077C45.8158 8.59677 45.5838 8.30077 45.2638 8.09277C44.9598 7.88476 44.5918 7.78076 44.1598 7.78076C43.7278 7.78076 43.3598 7.88476 43.0558 8.09277C42.7678 8.30077 42.5438 8.59677 42.3838 8.98077C42.2238 9.36477 42.1438 9.81277 42.1438 10.3248V10.3728ZM53.2738 17.8848C53.0978 17.8848 52.9538 17.8288 52.8418 17.7168C52.7298 17.6048 52.6738 17.4608 52.6738 17.2848V6.00476C52.6738 5.82876 52.7298 5.68476 52.8418 5.57277C52.9538 5.46076 53.0978 5.40476 53.2738 5.40476H56.0338C56.2098 5.40476 56.3538 5.46076 56.4658 5.57277C56.5778 5.68476 56.6338 5.82876 56.6338 6.00476V6.91677C57.0498 6.42076 57.5938 6.00477 58.2658 5.66877C58.9378 5.33277 59.7298 5.16476 60.6418 5.16476C61.5698 5.16476 62.3858 5.37277 63.0898 5.78877C63.8098 6.20477 64.3698 6.82077 64.7698 7.63677C65.1858 8.43677 65.3938 9.42077 65.3938 10.5888V17.2848C65.3938 17.4608 65.3298 17.6048 65.2018 17.7168C65.0898 17.8288 64.9538 17.8848 64.7938 17.8848H61.7698C61.6098 17.8848 61.4658 17.8288 61.3378 17.7168C61.2258 17.6048 61.1698 17.4608 61.1698 17.2848V10.7328C61.1698 9.98077 60.9858 9.40477 60.6178 9.00477C60.2658 8.58877 59.7378 8.38076 59.0338 8.38076C58.3778 8.38076 57.8498 8.58877 57.4498 9.00477C57.0658 9.40477 56.8738 9.98077 56.8738 10.7328V17.2848C56.8738 17.4608 56.8098 17.6048 56.6818 17.7168C56.5698 17.8288 56.4338 17.8848 56.2738 17.8848H53.2738ZM74.3391 17.8848C73.3151 17.8848 72.4271 17.7248 71.6751 17.4048C70.9391 17.0688 70.3711 16.5568 69.9711 15.8688C69.5711 15.1648 69.3711 14.2608 69.3711 13.1568V8.54876H67.4991C67.3231 8.54876 67.1711 8.49276 67.0431 8.38076C66.9311 8.26876 66.8751 8.12476 66.8751 7.94876V6.00476C66.8751 5.82876 66.9311 5.68476 67.0431 5.57277C67.1711 5.46076 67.3231 5.40476 67.4991 5.40476H69.3711V1.44476C69.3711 1.26876 69.4271 1.12476 69.5391 1.01277C69.6671 0.900765 69.8111 0.844765 69.9711 0.844765H72.7551C72.9311 0.844765 73.0751 0.900765 73.1871 1.01277C73.2991 1.12476 73.3551 1.26876 73.3551 1.44476V5.40476H76.3551C76.5311 5.40476 76.6751 5.46076 76.7871 5.57277C76.8991 5.68476 76.9551 5.82876 76.9551 6.00476V7.94876C76.9551 8.12476 76.8991 8.26876 76.7871 8.38076C76.6751 8.49276 76.5311 8.54876 76.3551 8.54876H73.3551V12.8208C73.3551 13.3648 73.4591 13.7968 73.6671 14.1168C73.8751 14.4368 74.2271 14.5968 74.7231 14.5968H76.5711C76.7471 14.5968 76.8911 14.6528 77.0031 14.7648C77.1151 14.8768 77.1711 15.0208 77.1711 15.1968V17.2848C77.1711 17.4608 77.1151 17.6048 77.0031 17.7168C76.8911 17.8288 76.7471 17.8848 76.5711 17.8848H74.3391ZM79.7582 17.8848C79.5822 17.8848 79.4382 17.8288 79.3262 17.7168C79.2142 17.6048 79.1582 17.4608 79.1582 17.2848V6.00476C79.1582 5.82876 79.2142 5.68476 79.3262 5.57277C79.4382 5.46076 79.5822 5.40476 79.7582 5.40476H82.5902C82.7502 5.40476 82.8862 5.46076 82.9982 5.57277C83.1262 5.68476 83.1902 5.82876 83.1902 6.00476V17.2848C83.1902 17.4608 83.1262 17.6048 82.9982 17.7168C82.8862 17.8288 82.7502 17.8848 82.5902 17.8848H79.7582ZM79.7342 3.60476C79.5582 3.60476 79.4142 3.54876 79.3022 3.43676C79.1902 3.32476 79.1342 3.18077 79.1342 3.00477V0.868764C79.1342 0.692765 79.1902 0.548765 79.3022 0.436764C79.4142 0.308765 79.5582 0.244765 79.7342 0.244765H82.5902C82.7662 0.244765 82.9102 0.308765 83.0222 0.436764C83.1502 0.548765 83.2142 0.692765 83.2142 0.868764V3.00477C83.2142 3.18077 83.1502 3.32476 83.0222 3.43676C82.9102 3.54876 82.7662 3.60476 82.5902 3.60476H79.7342ZM88.0179 17.8848C87.8579 17.8848 87.7139 17.8288 87.5859 17.7168C87.4739 17.6048 87.4179 17.4608 87.4179 17.2848V8.54876H85.5939C85.4179 8.54876 85.2739 8.49276 85.1619 8.38076C85.0499 8.26876 84.9939 8.12476 84.9939 7.94876V6.00476C84.9939 5.82876 85.0499 5.68476 85.1619 5.57277C85.2739 5.46076 85.4179 5.40476 85.5939 5.40476H87.4179V4.63676C87.4179 3.54877 87.6259 2.67677 88.0419 2.02077C88.4739 1.34877 89.0819 0.868765 89.8659 0.580765C90.6499 0.276765 91.5859 0.124765 92.6739 0.124765H98.8179C98.9779 0.124765 99.1139 0.180765 99.2259 0.292765C99.3539 0.404765 99.4179 0.548765 99.4179 0.724765V2.66877C99.4179 2.84477 99.3539 2.98876 99.2259 3.10076C99.1139 3.21276 98.9779 3.26876 98.8179 3.26876H92.8659C92.3219 3.26876 91.9379 3.39676 91.7139 3.65276C91.5059 3.90876 91.4019 4.27676 91.4019 4.75676V5.40476H98.8179C98.9779 5.40476 99.1139 5.46076 99.2259 5.57277C99.3539 5.68476 99.4179 5.82876 99.4179 6.00476V17.2848C99.4179 17.4608 99.3539 17.6048 99.2259 17.7168C99.1139 17.8288 98.9779 17.8848 98.8179 17.8848H96.0339C95.8579 17.8848 95.7139 17.8288 95.6019 17.7168C95.4899 17.6048 95.4339 17.4608 95.4339 17.2848V8.54876H91.4019V17.2848C91.4019 17.4608 91.3459 17.6048 91.2339 17.7168C91.1219 17.8288 90.9779 17.8848 90.8019 17.8848H88.0179ZM108.074 18.1248C106.89 18.1248 105.842 17.9088 104.93 17.4768C104.018 17.0448 103.29 16.4208 102.746 15.6048C102.218 14.7728 101.93 13.7808 101.882 12.6288C101.866 12.3728 101.858 12.0528 101.858 11.6688C101.858 11.2688 101.866 10.9408 101.882 10.6848C101.93 9.51677 102.218 8.52477 102.746 7.70877C103.274 6.87677 103.994 6.24477 104.906 5.81277C105.834 5.38076 106.89 5.16476 108.074 5.16476C109.178 5.16476 110.122 5.32476 110.906 5.64476C111.69 5.94876 112.33 6.33277 112.826 6.79677C113.322 7.26077 113.69 7.74077 113.93 8.23677C114.186 8.71677 114.322 9.14077 114.338 9.50877C114.354 9.66877 114.298 9.81277 114.17 9.94076C114.042 10.0528 113.898 10.1088 113.738 10.1088H110.69C110.514 10.1088 110.378 10.0688 110.282 9.98877C110.186 9.90877 110.098 9.78877 110.018 9.62877C109.826 9.13277 109.578 8.78077 109.274 8.57277C108.986 8.36477 108.61 8.26077 108.146 8.26077C107.506 8.26077 107.01 8.46877 106.658 8.88476C106.322 9.30077 106.138 9.94077 106.106 10.8048C106.09 11.4448 106.09 12.0128 106.106 12.5088C106.138 13.3888 106.322 14.0288 106.658 14.4288C107.01 14.8288 107.506 15.0288 108.146 15.0288C108.642 15.0288 109.034 14.9248 109.322 14.7168C109.61 14.5088 109.842 14.1568 110.018 13.6608C110.098 13.5008 110.186 13.3808 110.282 13.3008C110.378 13.2208 110.514 13.1808 110.69 13.1808H113.738C113.898 13.1808 114.042 13.2448 114.17 13.3728C114.298 13.4848 114.354 13.6208 114.338 13.7808C114.322 14.0528 114.242 14.3728 114.098 14.7408C113.954 15.0928 113.73 15.4688 113.426 15.8688C113.122 16.2688 112.722 16.6448 112.226 16.9968C111.746 17.3328 111.162 17.6048 110.474 17.8128C109.786 18.0208 108.986 18.1248 108.074 18.1248Z" fill="#147E45"/>
<path d="M117.358 17.8848C117.182 17.8848 117.038 17.8288 116.926 17.7168C116.814 17.6048 116.758 17.4608 116.758 17.2848V1.68477C116.758 1.50876 116.814 1.36476 116.926 1.25277C117.038 1.14076 117.182 1.08476 117.358 1.08476H128.566C128.742 1.08476 128.886 1.14076 128.998 1.25277C129.11 1.36476 129.166 1.50876 129.166 1.68477V3.94076C129.166 4.11676 129.11 4.26076 128.998 4.37277C128.886 4.48476 128.742 4.54076 128.566 4.54076H120.91V7.78076H128.038C128.214 7.78076 128.358 7.84476 128.47 7.97277C128.582 8.08477 128.638 8.22877 128.638 8.40477V10.4928C128.638 10.6528 128.582 10.7968 128.47 10.9248C128.358 11.0368 128.214 11.0928 128.038 11.0928H120.91V14.4288H128.758C128.934 14.4288 129.078 14.4848 129.19 14.5968C129.302 14.7088 129.358 14.8528 129.358 15.0288V17.2848C129.358 17.4608 129.302 17.6048 129.19 17.7168C129.078 17.8288 128.934 17.8848 128.758 17.8848H117.358ZM140.536 22.4448C140.36 22.4448 140.216 22.3888 140.104 22.2768C139.992 22.1648 139.936 22.0208 139.936 21.8448V16.5168C139.568 17.0288 139.088 17.4288 138.496 17.7168C137.904 17.9888 137.216 18.1248 136.432 18.1248C135.648 18.1248 134.944 17.9968 134.32 17.7408C133.696 17.4688 133.168 17.0928 132.736 16.6128C132.304 16.1328 131.968 15.5488 131.728 14.8608C131.488 14.1728 131.352 13.3968 131.32 12.5328C131.304 12.2128 131.296 11.9168 131.296 11.6448C131.296 11.3728 131.304 11.0768 131.32 10.7568C131.368 9.86077 131.512 9.06877 131.752 8.38076C131.992 7.69277 132.328 7.10877 132.76 6.62877C133.192 6.14877 133.712 5.78877 134.32 5.54877C134.944 5.29277 135.648 5.16476 136.432 5.16476C137.328 5.16476 138.08 5.33277 138.688 5.66877C139.296 5.98877 139.784 6.39676 140.152 6.89276V6.00476C140.152 5.82876 140.208 5.68476 140.32 5.57277C140.448 5.46076 140.592 5.40476 140.752 5.40476H143.464C143.64 5.40476 143.784 5.46076 143.896 5.57277C144.008 5.68476 144.064 5.82876 144.064 6.00476V21.8448C144.064 22.0208 144.008 22.1648 143.896 22.2768C143.784 22.3888 143.64 22.4448 143.464 22.4448H140.536ZM137.728 14.9088C138.224 14.9088 138.632 14.8048 138.952 14.5968C139.272 14.3728 139.512 14.0928 139.672 13.7568C139.832 13.4048 139.92 13.0288 139.936 12.6288C139.968 12.3088 139.984 12.0048 139.984 11.7168C139.984 11.4288 139.968 11.1328 139.936 10.8288C139.92 10.3968 139.84 9.99677 139.696 9.62877C139.552 9.26077 139.32 8.96477 139 8.74077C138.68 8.50077 138.256 8.38076 137.728 8.38076C137.2 8.38076 136.776 8.49276 136.456 8.71676C136.152 8.94076 135.928 9.24477 135.784 9.62877C135.656 10.0128 135.576 10.4368 135.544 10.9008C135.512 11.3968 135.512 11.8928 135.544 12.3888C135.576 12.8528 135.656 13.2768 135.784 13.6608C135.928 14.0448 136.152 14.3488 136.456 14.5728C136.776 14.7968 137.2 14.9088 137.728 14.9088ZM151.477 18.1248C150.565 18.1248 149.749 17.9168 149.029 17.5008C148.325 17.0848 147.773 16.4768 147.373 15.6768C146.973 14.8608 146.773 13.8688 146.773 12.7008V6.00476C146.773 5.82876 146.829 5.68476 146.941 5.57277C147.053 5.46076 147.197 5.40476 147.373 5.40476H150.373C150.549 5.40476 150.693 5.46076 150.805 5.57277C150.917 5.68476 150.973 5.82876 150.973 6.00476V12.5568C150.973 14.1248 151.677 14.9088 153.085 14.9088C153.741 14.9088 154.261 14.7088 154.645 14.3088C155.045 13.8928 155.245 13.3088 155.245 12.5568V6.00476C155.245 5.82876 155.301 5.68476 155.413 5.57277C155.525 5.46076 155.669 5.40476 155.845 5.40476H158.845C159.021 5.40476 159.165 5.46076 159.277 5.57277C159.389 5.68476 159.445 5.82876 159.445 6.00476V17.2848C159.445 17.4608 159.389 17.6048 159.277 17.7168C159.165 17.8288 159.021 17.8848 158.845 17.8848H156.061C155.901 17.8848 155.757 17.8288 155.629 17.7168C155.517 17.6048 155.461 17.4608 155.461 17.2848V16.3728C155.045 16.9488 154.501 17.3888 153.829 17.6928C153.173 17.9808 152.389 18.1248 151.477 18.1248ZM162.868 17.8848C162.692 17.8848 162.548 17.8288 162.436 17.7168C162.324 17.6048 162.268 17.4608 162.268 17.2848V6.00476C162.268 5.82876 162.324 5.68476 162.436 5.57277C162.548 5.46076 162.692 5.40476 162.868 5.40476H165.7C165.86 5.40476 165.996 5.46076 166.108 5.57277C166.236 5.68476 166.3 5.82876 166.3 6.00476V17.2848C166.3 17.4608 166.236 17.6048 166.108 17.7168C165.996 17.8288 165.86 17.8848 165.7 17.8848H162.868ZM162.844 3.60476C162.668 3.60476 162.524 3.54876 162.412 3.43676C162.3 3.32476 162.244 3.18077 162.244 3.00477V0.868764C162.244 0.692765 162.3 0.548765 162.412 0.436764C162.524 0.308765 162.668 0.244765 162.844 0.244765H165.7C165.876 0.244765 166.02 0.308765 166.132 0.436764C166.26 0.548765 166.324 0.692765 166.324 0.868764V3.00477C166.324 3.18077 166.26 3.32476 166.132 3.43676C166.02 3.54876 165.876 3.60476 165.7 3.60476H162.844ZM170.461 22.4448C170.285 22.4448 170.141 22.3888 170.029 22.2768C169.917 22.1648 169.861 22.0208 169.861 21.8448V6.00476C169.861 5.82876 169.917 5.68476 170.029 5.57277C170.141 5.46076 170.285 5.40476 170.461 5.40476H173.173C173.333 5.40476 173.469 5.46076 173.581 5.57277C173.709 5.68476 173.773 5.82876 173.773 6.00476V6.89276C174.141 6.39676 174.629 5.98877 175.237 5.66877C175.845 5.33277 176.597 5.16476 177.493 5.16476C178.293 5.16476 178.997 5.29277 179.605 5.54877C180.213 5.78877 180.733 6.14877 181.165 6.62877C181.597 7.10877 181.933 7.69277 182.173 8.38076C182.429 9.06877 182.573 9.86077 182.605 10.7568C182.621 11.0768 182.629 11.3728 182.629 11.6448C182.629 11.9168 182.621 12.2128 182.605 12.5328C182.573 13.3968 182.437 14.1728 182.197 14.8608C181.957 15.5488 181.621 16.1328 181.189 16.6128C180.757 17.0928 180.229 17.4688 179.605 17.7408C178.997 17.9968 178.293 18.1248 177.493 18.1248C176.709 18.1248 176.021 17.9888 175.429 17.7168C174.853 17.4288 174.373 17.0288 173.989 16.5168V21.8448C173.989 22.0208 173.933 22.1648 173.821 22.2768C173.709 22.3888 173.565 22.4448 173.389 22.4448H170.461ZM176.197 14.9088C176.741 14.9088 177.165 14.7968 177.469 14.5728C177.773 14.3488 177.989 14.0448 178.117 13.6608C178.261 13.2768 178.349 12.8528 178.381 12.3888C178.413 11.8928 178.413 11.3968 178.381 10.9008C178.349 10.4368 178.261 10.0128 178.117 9.62877C177.989 9.24477 177.773 8.94076 177.469 8.71676C177.165 8.49276 176.741 8.38076 176.197 8.38076C175.669 8.38076 175.245 8.50077 174.925 8.74077C174.605 8.96477 174.373 9.26077 174.229 9.62877C174.085 9.99677 174.005 10.3968 173.989 10.8288C173.973 11.1328 173.965 11.4288 173.965 11.7168C173.965 12.0048 173.973 12.3088 173.989 12.6288C174.005 13.0288 174.093 13.4048 174.253 13.7568C174.413 14.0928 174.653 14.3728 174.973 14.5968C175.293 14.8048 175.701 14.9088 176.197 14.9088ZM185.602 17.8848C185.426 17.8848 185.282 17.8288 185.17 17.7168C185.058 17.6048 185.002 17.4608 185.002 17.2848V6.00476C185.002 5.82876 185.058 5.68476 185.17 5.57277C185.282 5.46076 185.426 5.40476 185.602 5.40476H188.218C188.394 5.40476 188.538 5.46076 188.65 5.57277C188.762 5.68476 188.818 5.82876 188.818 6.00476V6.82077C189.138 6.38876 189.586 6.01276 190.162 5.69277C190.738 5.35676 191.418 5.18076 192.202 5.16476C194.042 5.13277 195.306 5.82877 195.994 7.25277C196.362 6.64476 196.89 6.14877 197.578 5.76477C198.266 5.36477 199.018 5.16476 199.834 5.16476C200.666 5.16476 201.41 5.35676 202.066 5.74076C202.738 6.10877 203.274 6.68477 203.674 7.46877C204.074 8.23677 204.274 9.23677 204.274 10.4688V17.2848C204.274 17.4608 204.21 17.6048 204.082 17.7168C203.97 17.8288 203.834 17.8848 203.674 17.8848H200.89C200.714 17.8848 200.562 17.8288 200.434 17.7168C200.322 17.6048 200.266 17.4608 200.266 17.2848V10.6368C200.266 10.0768 200.186 9.63677 200.026 9.31677C199.866 8.98077 199.65 8.74077 199.378 8.59677C199.106 8.45276 198.794 8.38076 198.442 8.38076C198.154 8.38076 197.866 8.45276 197.578 8.59677C197.306 8.74077 197.082 8.98077 196.906 9.31677C196.746 9.63677 196.666 10.0768 196.666 10.6368V17.2848C196.666 17.4608 196.61 17.6048 196.498 17.7168C196.386 17.8288 196.242 17.8848 196.066 17.8848H193.282C193.106 17.8848 192.962 17.8288 192.85 17.7168C192.738 17.6048 192.682 17.4608 192.682 17.2848V10.6368C192.682 10.0768 192.594 9.63677 192.418 9.31677C192.242 8.98077 192.018 8.74077 191.746 8.59677C191.474 8.45276 191.17 8.38076 190.834 8.38076C190.546 8.38076 190.258 8.45276 189.97 8.59677C189.698 8.74077 189.474 8.98077 189.298 9.31677C189.138 9.63677 189.058 10.0688 189.058 10.6128V17.2848C189.058 17.4608 188.994 17.6048 188.866 17.7168C188.754 17.8288 188.61 17.8848 188.434 17.8848H185.602ZM212.723 18.1248C210.835 18.1248 209.331 17.6128 208.211 16.5888C207.091 15.5648 206.507 14.0448 206.459 12.0288C206.459 11.9168 206.459 11.7728 206.459 11.5968C206.459 11.4208 206.459 11.2848 206.459 11.1888C206.507 9.92477 206.787 8.84477 207.299 7.94876C207.827 7.03677 208.547 6.34877 209.459 5.88477C210.387 5.40477 211.467 5.16476 212.699 5.16476C214.107 5.16476 215.267 5.44476 216.179 6.00476C217.107 6.56477 217.803 7.32477 218.267 8.28477C218.731 9.24477 218.963 10.3408 218.963 11.5728V12.1488C218.963 12.3248 218.899 12.4688 218.771 12.5808C218.659 12.6928 218.523 12.7488 218.363 12.7488H210.683C210.683 12.7648 210.683 12.7888 210.683 12.8208C210.683 12.8528 210.683 12.8848 210.683 12.9168C210.699 13.3808 210.779 13.8048 210.923 14.1888C211.067 14.5728 211.291 14.8768 211.595 15.1008C211.899 15.3248 212.267 15.4368 212.699 15.4368C213.019 15.4368 213.283 15.3888 213.491 15.2928C213.715 15.1808 213.899 15.0608 214.043 14.9328C214.187 14.7888 214.299 14.6688 214.379 14.5728C214.523 14.4128 214.635 14.3168 214.715 14.2848C214.811 14.2368 214.955 14.2128 215.147 14.2128H218.123C218.283 14.2128 218.411 14.2608 218.507 14.3568C218.619 14.4368 218.667 14.5568 218.651 14.7168C218.635 14.9888 218.499 15.3168 218.243 15.7008C217.987 16.0848 217.611 16.4688 217.115 16.8528C216.635 17.2208 216.027 17.5248 215.291 17.7648C214.555 18.0048 213.699 18.1248 212.723 18.1248ZM210.683 10.3728H214.739V10.3248C214.739 9.81277 214.659 9.36477 214.499 8.98077C214.355 8.59677 214.123 8.30077 213.803 8.09277C213.499 7.88476 213.131 7.78076 212.699 7.78076C212.267 7.78076 211.899 7.88476 211.595 8.09277C211.307 8.30077 211.083 8.59677 210.923 8.98077C210.763 9.36477 210.683 9.81277 210.683 10.3248V10.3728ZM221.813 17.8848C221.637 17.8848 221.493 17.8288 221.381 17.7168C221.269 17.6048 221.213 17.4608 221.213 17.2848V6.00476C221.213 5.82876 221.269 5.68476 221.381 5.57277C221.493 5.46076 221.637 5.40476 221.813 5.40476H224.573C224.749 5.40476 224.893 5.46076 225.005 5.57277C225.117 5.68476 225.173 5.82876 225.173 6.00476V6.91677C225.589 6.42076 226.133 6.00477 226.805 5.66877C227.477 5.33277 228.269 5.16476 229.181 5.16476C230.109 5.16476 230.925 5.37277 231.629 5.78877C232.349 6.20477 232.909 6.82077 233.309 7.63677C233.725 8.43677 233.933 9.42077 233.933 10.5888V17.2848C233.933 17.4608 233.869 17.6048 233.741 17.7168C233.629 17.8288 233.493 17.8848 233.333 17.8848H230.309C230.149 17.8848 230.005 17.8288 229.877 17.7168C229.765 17.6048 229.709 17.4608 229.709 17.2848V10.7328C229.709 9.98077 229.525 9.40477 229.157 9.00477C228.805 8.58877 228.277 8.38076 227.573 8.38076C226.917 8.38076 226.389 8.58877 225.989 9.00477C225.605 9.40477 225.413 9.98077 225.413 10.7328V17.2848C225.413 17.4608 225.349 17.6048 225.221 17.7168C225.109 17.8288 224.973 17.8848 224.813 17.8848H221.813ZM242.878 17.8848C241.854 17.8848 240.966 17.7248 240.214 17.4048C239.478 17.0688 238.91 16.5568 238.51 15.8688C238.11 15.1648 237.91 14.2608 237.91 13.1568V8.54876H236.038C235.862 8.54876 235.71 8.49276 235.582 8.38076C235.47 8.26876 235.414 8.12476 235.414 7.94876V6.00476C235.414 5.82876 235.47 5.68476 235.582 5.57277C235.71 5.46076 235.862 5.40476 236.038 5.40476H237.91V1.44476C237.91 1.26876 237.966 1.12476 238.078 1.01277C238.206 0.900765 238.35 0.844765 238.51 0.844765H241.294C241.47 0.844765 241.614 0.900765 241.726 1.01277C241.838 1.12476 241.894 1.26876 241.894 1.44476V5.40476H244.894C245.07 5.40476 245.214 5.46076 245.326 5.57277C245.438 5.68476 245.494 5.82876 245.494 6.00476V7.94876C245.494 8.12476 245.438 8.26876 245.326 8.38076C245.214 8.49276 245.07 8.54876 244.894 8.54876H241.894V12.8208C241.894 13.3648 241.998 13.7968 242.206 14.1168C242.414 14.4368 242.766 14.5968 243.262 14.5968H245.11C245.286 14.5968 245.43 14.6528 245.542 14.7648C245.654 14.8768 245.71 15.0208 245.71 15.1968V17.2848C245.71 17.4608 245.654 17.6048 245.542 17.7168C245.43 17.8288 245.286 17.8848 245.11 17.8848H242.878Z" fill="#0B132A"/>
</svg>
